<svg xmlns="http://www.w3.org/2000/svg" version="1.1" xmlns:xlink="http://www.w3.org/1999/xlink" xmlns:svgjs="http://svgjs.dev/svgjs" width="100%" height="100%" viewBox="0 0 1000 600"><rect width="1000" height="600" x="0" y="0" fill="#191919"/><g><rect width="333.3333333333333" height="333.3333333333333" y="313.5554190091974" fill="#b88746" transform="matrix(0.4290619946396581,0,0,0.4290619946396581,0,93.95495186757476)" x="291.3331909179687"/><path d="M485.58001888910457 405.2220897658195L510.92069947694404 405.2220897658195Q504.2172928682985 412.58681899953325 495.7703993390187 421.5747946765961Q487.32350580973883 430.562770353659 478.125109297427 439.9715877012198Q468.92671278511517 449.3804050487806 459.84855675008845 458.48862120312856Q450.74034059574046 467.5667772381553 442.7443488562798 475.35234814236696L442.7443488562798 475.35234814236696Q452.0329257265555 481.84533391576355 462.4337270117186 491.3743917406095Q472.8345282968816 500.9034495654554 482.7844277922255 511.7250925211164Q492.73432728756933 522.5467354767774 501.51188212938325 533.7892201029363Q510.25937685187586 545.0617648484165 516.1211001195256 555.2220851790094L516.1211001195256 555.2220851790094L491.4417421567543 555.2220851790094Q484.9487563833577 545.0617648484165 476.50186285407784 534.7812040405386Q468.05496932479804 524.5006432326607 458.64615197723725 515.0617657657785Q449.2373346296764 505.6529484182177 439.58803632754535 497.6569566787571Q429.9687981447356 489.6309048199752 420.8906421097089 484.0096625068957L420.8906421097089 484.0096625068957L420.8906421097089 555.2220851790094L399.8786187041338 555.2220851790094L399.8786187041338 405.2220897658195L420.8906421097089 405.2220897658195L420.8906421097089 471.4745927499218Q428.4657921786716 464.320284351457 437.54394821369834 455.33230867439414Q446.622104248725 446.34433299733126 455.5198995678241 437.26617696230454Q464.3876347676018 428.1880209272778 472.2934461490986 419.83130775596186Q480.16919741127407 411.5046547039671 485.58001888910457 405.2220897658195L485.58001888910457 405.2220897658195Z " fill="#191919" transform="matrix(0.4290619946396581,0,0,0.4290619946396581,0,93.95495186757476)"/><path d="M707.9998576216087 503.49704683495753L707.9998576216087 503.49704683495753Q707.9998576216087 490.37435748486547 711.8020050389392 480.6049509264469Q715.6041524562696 470.80914056651903 721.8882572154687 464.3402091967554Q728.1459581731584 457.8712778269917 736.3311366410227 454.6500140428645Q744.5163151088869 451.402346457228 753.0711467978805 451.402346457228L753.0711467978805 451.402346457228Q773.0324207388657 451.402346457228 783.6731527470891 463.86494076958905Q794.3138847553126 476.3275350819501 794.3138847553126 501.780799736857L794.3138847553126 501.780799736857Q794.3138847553126 502.9425670032635 794.3138847553126 504.7380255058918Q794.3138847553126 506.53348400852013 794.129058144748 508.064904496056L794.129058144748 508.064904496056L726.4561148765671 508.064904496056Q727.5914783414645 523.4583207759426 735.3805997866901 531.4586726332423Q743.1697212319158 539.4326206890325 759.724904778209 539.4326206890325L759.724904778209 539.4326206890325Q769.0190429094613 539.4326206890325 775.4087628746971 537.821988796969Q781.7720790384238 536.2113569049053 784.9933428225511 534.6799364173694L784.9933428225511 534.6799364173694L787.4753001644197 549.5188728655621Q784.2276325787832 551.2087161621535 776.1480693169559 553.1097898708185Q768.0685060551285 555.0108635794838 757.8238310695436 555.0108635794838L757.8238310695436 555.0108635794838Q744.8859683300163 555.0108635794838 735.486214992727 551.1295047576257Q726.0600578539285 547.2217421342582 719.9871835068035 540.3831575433651Q713.8879053581692 533.5445729524722 710.9570833906436 524.1184158136737Q707.9998576216087 514.7186624763843 707.9998576216087 503.49704683495753ZM726.8257680976965 493.8068516810667L775.8840313018635 493.8068516810667Q776.0688579124281 481.8195257958719 769.8903683592661 474.1360195566832Q763.7118788061041 466.4261095159853 752.8599163858066 466.4261095159853L752.8599163858066 466.4261095159853Q746.7870420386815 466.4261095159853 742.1399729730555 468.80245165181685Q737.46650010592 471.1787937876484 734.2452363217927 474.9809412049789Q730.9975687361563 478.7830886223094 729.2021102335281 483.7205995045372Q727.4066517308997 488.6845141882742 726.8257680976965 493.8068516810667L726.8257680976965 493.8068516810667ZM851.9269796484732 539.8022739101618L849.4450223066048 554.6412103583546Q833.1010691723855 554.271557137225 826.2624845814925 547.6177991568968Q819.3974961890902 540.9640411765683 819.3974961890902 526.8908149721437L819.3974961890902 526.8908149721437L819.3974961890902 408.25853479113067L837.0880432002807 405.22209761756807L837.0880432002807 524.0392044091459Q837.0880432002807 528.3958316581704 837.8537534440486 531.2474422211683Q838.6194636878165 534.0990527841661 840.3093069844078 535.8152998822668Q842.0255540825085 537.5315469803672 844.8771646455064 538.3764686286629Q847.7287752085042 539.2477940784679 851.9269796484732 539.8022739101618L851.9269796484732 539.8022739101618ZM930.610308146007 453.88430379909653L948.8817387904007 453.88430379909653Q941.4622705663045 481.6346991853072 931.4816335958119 507.1143676417234Q921.5009966253194 532.5940360981394 912.1804546925578 552.7401366496892L912.1804546925578 552.7401366496892L896.206154779468 552.7401366496892Q886.8856128467064 532.5940360981394 876.9049758762138 507.1143676417234Q866.9243389057212 481.6346991853072 859.5312744831342 453.88430379909653L859.5312744831342 453.88430379909653L878.5420115697867 453.88430379909653Q880.8127384995813 463.2048457318581 883.9547908791808 473.73996253404465Q887.0968432587803 484.30148313774043 890.6085488595091 494.6517733293623Q894.120254460238 505.02846732249344 897.7375752670039 514.7186624763843Q901.3548960737696 524.4088576302752 904.5761598578969 532.0131524649362L904.5761598578969 532.0131524649362Q907.7974236420241 524.4088576302752 911.4147444487899 514.7186624763843Q915.0320652555557 505.02846732249344 918.5437708562845 494.6517733293623Q922.0554764570134 484.30148313774043 925.197528836613 473.73996253404465Q928.3395812162124 463.2048457318581 930.610308146007 453.88430379909653L930.610308146007 453.88430379909653ZM984.7909088429665 453.88430379909653L984.7909088429665 552.7401366496892L967.1267656332852 552.7401366496892L967.1267656332852 453.88430379909653L984.7909088429665 453.88430379909653ZM975.8664239328435 436.00893017734137L975.8664239328435 436.00893017734137Q971.1137396611805 436.00893017734137 967.7868606710163 432.8668777977419Q964.459981680852 429.75122921965163 964.459981680852 424.4176613147852L964.459981680852 424.4176613147852Q964.459981680852 419.08409340991886 967.7868606710163 415.96844483182855Q971.1137396611805 412.8263924522291 975.8664239328435 412.8263924522291L975.8664239328435 412.8263924522291Q980.6191082045066 412.8263924522291 983.9459871946708 415.96844483182855Q987.272866184835 419.08409340991886 987.272866184835 424.4176613147852L987.272866184835 424.4176613147852Q987.272866184835 429.75122921965163 983.9459871946708 432.8668777977419Q980.6191082045066 436.00893017734137 975.8664239328435 436.00893017734137ZM1015.2080881816105 552.7401366496892L1015.2080881816105 456.7359143620944Q1021.3073663302448 455.2044938745585 1031.3672147052653 453.5146505779672Q1041.4534668817946 451.7984034798666 1054.5761562318867 451.7984034798666L1054.5761562318867 451.7984034798666Q1066.3522517050073 451.7984034798666 1074.141373150233 455.12528247003075Q1081.956898396968 458.45216146019493 1086.603967462594 464.4458244027923Q1091.25103652822 470.4130835438804 1093.1521102368856 478.7830886223094Q1095.0531839455507 487.1530937007383 1095.0531839455507 497.2393458772678L1095.0531839455507 497.2393458772678L1095.0531839455507 552.7401366496892L1077.3890407358695 552.7401366496892L1077.3890407358695 501.0414932945983Q1077.3890407358695 491.9057779724014 1076.1480620649354 485.43684660263773Q1074.907083394001 478.9679152328741 1072.055472831003 474.9809412049789Q1069.2038622680052 470.99396717708373 1064.4511779963423 469.1985086744554Q1059.6984937246789 467.3766463703179 1052.6750825232216 467.3766463703179L1052.6750825232216 467.3766463703179Q1049.8234719602233 467.3766463703179 1046.787034786661 467.56147298088257Q1043.724193811589 467.7727033929565 1040.9781984546285 468.0367414080489Q1038.2322030976675 468.3271832246505 1036.0406875724007 468.72324024728914Q1033.8491720471334 469.0928934684185 1032.898635192801 469.2777200789831L1032.898635192801 469.2777200789831L1032.898635192801 552.7401366496892L1015.2080881816105 552.7401366496892ZM1116.9155315952012 408.25853479113067L1135.3717888501596 408.25853479113067L1135.3717888501596 417.76390333445687Q1135.3717888501596 427.0844452672184 1134.236425385262 437.2499088482756Q1133.0746581188555 447.4153724293328 1131.3848148222642 457.50162460586233L1131.3848148222642 457.50162460586233L1120.9289094246055 457.50162460586233Q1119.2126623265049 447.4153724293328 1118.0772988616077 437.2499088482756Q1116.9155315952012 427.0844452672184 1116.9155315952012 417.57907672389223L1116.9155315952012 417.57907672389223L1116.9155315952012 408.25853479113067ZM1187.255258815815 540.0135043222358L1187.255258815815 540.0135043222358Q1198.1072212361128 540.0135043222358 1203.3351739349418 537.161893759238Q1208.5631266337714 534.3102831962401 1208.5631266337714 528.0261784370412L1208.5631266337714 528.0261784370412Q1208.5631266337714 521.5572470672773 1203.4143853394698 517.7550996499469Q1198.2920478466772 513.9529522326163 1186.5159523735565 509.20026796095334L1186.5159523735565 509.20026796095334Q1180.8127312475608 506.9295410311587 1175.5847785487313 504.55319889532717Q1170.3568258499017 502.1768567594956 1166.5546784325716 498.92918917385913Q1162.752531015241 495.7079253897319 1160.4554002839368 491.1400677286335Q1158.1846733541424 486.572210067535 1158.1846733541424 479.9184520872067L1158.1846733541424 479.9184520872067Q1158.1846733541424 466.8221665386239 1167.8748685080332 459.11225649792596Q1177.5650636619243 451.402346457228 1194.3050738187821 451.402346457228L1194.3050738187821 451.402346457228Q1198.476874457242 451.402346457228 1202.6750788972108 451.8776148843943Q1206.8468795356707 452.3528833115606 1210.4642003424365 453.03938215080086Q1214.0815211492027 453.69947718853183 1216.8275165061632 454.4651874322998Q1219.5735118631242 455.2044938745585 1221.10493235066 455.7853775077618L1221.10493235066 455.7853775077618L1217.8836685665328 470.99396717708373Q1215.032058003535 469.4625466895478 1208.9327798549007 467.8519147974842Q1202.8599055077757 466.24128290542063 1194.3050738187821 466.24128290542063L1194.3050738187821 466.24128290542063Q1186.8856055946858 466.24128290542063 1181.3672110792545 469.1985086744554Q1175.8488165638237 472.129330641981 1175.8488165638237 478.41343540118004L1175.8488165638237 478.41343540118004Q1175.8488165638237 481.6346991853072 1177.0897952347577 484.11665652717573Q1178.3307739056922 486.572210067535 1180.8919426520883 488.57889898223726Q1183.4531113984845 490.58558789693944 1187.255258815815 492.2754311935308Q1191.0574062331457 493.99167829163133 1196.390974138012 495.8927520002966L1196.390974138012 495.8927520002966Q1203.4143853394698 498.5595359527298 1208.9327798549007 501.120704699126Q1214.451174370332 503.6818734455222 1218.3589369936994 507.1143676417234Q1222.2402958155576 510.5468618379245 1224.3261961347876 515.3787575141153Q1226.4385002555264 520.2370569918154 1226.4385002555264 527.260468193273L1226.4385002555264 527.260468193273Q1226.4385002555264 540.9640411765683 1216.2466328729602 547.9874523780261Q1206.0811692919028 555.0108635794838 1187.255258815815 555.0108635794838L1187.255258815815 555.0108635794838Q1174.1589732672323 555.0108635794838 1166.739505043136 552.8457518557261Q1159.3200368190396 550.6542363304593 1156.6532528666066 549.5188728655621L1156.6532528666066 549.5188728655621L1159.900920452243 534.3102831962401Q1162.9373576258054 535.4456466611373 1169.5911156061338 537.7163735909319Q1176.2448735864623 540.0135043222358 1187.255258815815 540.0135043222358ZM1329.0964805234498 419.6649770431221L1329.0964805234498 419.6649770431221Q1356.8468759096604 419.6649770431221 1371.7650237623811 430.2264976468179Q1386.6831716151014 440.76161444900447 1386.6831716151014 461.6734252443222L1386.6831716151014 461.6734252443222Q1386.6831716151014 473.0798674963136 1382.590582381169 481.1594307581409Q1378.524396948746 489.23899401996823 1370.8144869080484 494.28212010823296Q1363.1045768673503 499.3252461964977 1352.0941916379975 501.5959731262923Q1341.0574026071354 503.89310385759615 1327.1954068147847 503.89310385759615L1327.1954068147847 503.89310385759615L1312.5412969771564 503.89310385759615L1312.5412969771564 552.7401366496892L1294.1114435237073 552.7401366496892L1294.1114435237073 422.8862408272493Q1301.900564968933 420.9851671185841 1311.5115487182961 420.3250720808531Q1321.0961286661504 419.6649770431221 1329.0964805234498 419.6649770431221ZM1330.6014972094763 435.82410356677667L1330.6014972094763 435.82410356677667Q1318.8254017363556 435.82410356677667 1312.5412969771564 436.4049871999799L1312.5412969771564 436.4049871999799L1312.5412969771564 488.10363055507094L1326.4296965710164 488.10363055507094Q1335.9350651143427 488.10363055507094 1343.539359949004 486.86265188413665Q1351.1436547836647 485.6216732132024 1356.3716074824943 482.6908512456768Q1361.5995601813238 479.733625476642 1364.4511707443216 474.61128798384954Q1367.3027813073195 469.4625466895478 1367.3027813073195 461.4885986337575L1367.3027813073195 461.4885986337575Q1367.3027813073195 453.88430379909653 1364.3455555382848 448.94679291686873Q1361.414733570759 444.00928203464093 1356.3716074824943 441.0520562656061Q1351.3284813942296 438.09483049657126 1344.6747234139011 436.95946703167397Q1338.0209654335727 435.82410356677667 1330.6014972094763 435.82410356677667ZM1491.823109224893 503.3122202243929L1491.823109224893 503.3122202243929Q1491.823109224893 515.0883156975137 1488.3906150286916 524.5936842408399Q1484.984524634 534.0990527841661 1478.8060350808378 540.9640411765683Q1472.627545527676 547.8026257674614 1464.072713838682 551.499157978755Q1455.5178821496884 555.2220939915578 1445.431629973159 555.2220939915578L1445.431629973159 555.2220939915578Q1435.3453777966297 555.2220939915578 1426.7905461076361 551.499157978755Q1418.2357144186426 547.8026257674614 1412.0572248654803 540.9640411765683Q1405.8787353123184 534.0990527841661 1402.4726449176264 524.5936842408399Q1399.040150721425 515.0883156975137 1399.040150721425 503.3122202243929L1399.040150721425 503.3122202243929Q1399.040150721425 491.72095136183674 1402.4726449176264 482.10996761247355Q1405.8787353123184 472.5253876646196 1412.0572248654803 465.6603992722174Q1418.2357144186426 458.8218146813243 1426.7905461076361 455.12528247003075Q1435.3453777966297 451.402346457228 1445.431629973159 451.402346457228L1445.431629973159 451.402346457228Q1455.5178821496884 451.402346457228 1464.072713838682 455.12528247003075Q1472.627545527676 458.8218146813243 1478.8060350808378 465.6603992722174Q1484.984524634 472.5253876646196 1488.3906150286916 482.10996761247355Q1491.823109224893 491.72095136183674 1491.823109224893 503.3122202243929ZM1473.3668519699345 503.3122202243929L1473.3668519699345 503.3122202243929Q1473.3668519699345 486.572210067535 1465.8681723413106 476.8028035091164Q1458.3694927126867 467.00699314918853 1445.431629973159 467.00699314918853L1445.431629973159 467.00699314918853Q1432.4937672336318 467.00699314918853 1424.995087605008 476.8028035091164Q1417.4964079763836 486.572210067535 1417.4964079763836 503.3122202243929L1417.4964079763836 503.3122202243929Q1417.4964079763836 520.0522303812506 1424.995087605008 529.8216369396694Q1432.4937672336318 539.6174472995972 1445.431629973159 539.6174472995972L1445.431629973159 539.6174472995972Q1458.3694927126867 539.6174472995972 1465.8681723413106 529.8216369396694Q1473.3668519699345 520.0522303812506 1473.3668519699345 503.3122202243929ZM1553.2119477338747 451.7984034798666L1553.2119477338747 451.7984034798666Q1555.5090784651784 451.7984034798666 1558.4399004327042 452.08884529646826Q1561.397126201739 452.3528833115606 1564.2487367647368 452.82815173872694Q1567.1003473277347 453.3034201658933 1569.4766894635663 453.77868859305954Q1571.853031599398 454.25395702022587 1572.9883950642952 454.6500140428645L1572.9883950642952 454.6500140428645L1569.9519578907325 470.0434303227511Q1567.8660575715026 469.2777200789831 1563.0077580938027 468.2479718201228Q1558.1758624176118 467.19181975975323 1550.5715675829506 467.19181975975323L1550.5715675829506 467.19181975975323Q1545.607652899214 467.19181975975323 1540.775757223023 468.2479718201228Q1535.9174577453232 469.2777200789831 1534.4124410592963 469.67377710162174L1534.4124410592963 469.67377710162174L1534.4124410592963 552.7401366496892L1516.7218940481057 552.7401366496892L1516.7218940481057 458.05610443755637Q1523.0059988073049 455.7853775077618 1532.300136938557 453.77868859305954Q1541.6206788713184 451.7984034798666 1553.2119477338747 451.7984034798666ZM1606.6532419885757 423.2822978498879L1606.6532419885757 453.88430379909653L1644.093832528677 453.88430379909653L1644.093832528677 468.72324024728914L1606.6532419885757 468.72324024728914L1606.6532419885757 514.3490092552549Q1606.6532419885757 521.742073677842 1607.7886054534729 526.6003731555421Q1608.92396891837 531.4586726332423 1611.1946958481649 534.2046679902031Q1613.4918265794686 536.950663347164 1616.8979169741606 538.1124306135705Q1620.3304111703615 539.2477940784679 1624.89826883146 539.2477940784679L1624.89826883146 539.2477940784679Q1632.8722168872505 539.2477940784679 1637.7305163649507 537.4259317743304Q1642.5624120411412 535.6304732717019 1644.4634857498063 534.864763027934L1644.4634857498063 534.864763027934L1647.8959799460076 549.5188728655621Q1645.2291959935746 550.8390629410239 1638.5754380132462 552.8457518557261Q1631.9216800329177 554.8260369689192 1623.3668483439242 554.8260369689192L1623.3668483439242 554.8260369689192Q1613.3069999689037 554.8260369689192 1606.7324533931032 552.2648682225229Q1600.1843106188117 549.7036994761268 1596.1973365909166 544.554958181825Q1592.1839587615123 539.4326206890325 1590.573326869449 531.9339410604085Q1588.9626949773851 524.4088576302752 1588.9626949773851 514.5338358658196L1588.9626949773851 514.5338358658196L1588.9626949773851 426.3187350234505L1606.6532419885757 423.2822978498879ZM1705.1130178165295 405.22209761756807L1705.1130178165295 405.22209761756807Q1712.9021392617556 405.22209761756807 1718.5261489832233 406.35746108246536Q1724.123754903182 407.4928245473627 1726.4208856344858 408.4433614016953L1726.4208856344858 408.4433614016953L1723.1732180488493 423.65195107101727Q1720.902491119055 422.51658760611997 1716.7042866790857 421.4604355457504Q1712.5324860406258 420.4306872868901 1706.4596116935008 420.4306872868901L1706.4596116935008 420.4306872868901Q1694.1026325871767 420.4306872868901 1689.13871790344 427.16365667174614Q1684.2012070212118 433.9230298581114 1684.2012070212118 445.3294721101029L1684.2012070212118 445.3294721101029L1684.2012070212118 453.88430379909653L1722.222681194517 453.88430379909653L1722.222681194517 468.72324024728914L1684.2012070212118 468.72324024728914L1684.2012070212118 552.7401366496892L1666.537063811531 552.7401366496892L1666.537063811531 444.95981888897353Q1666.537063811531 425.94908180232113 1675.831201942783 415.57238780919Q1685.1517438755445 405.22209761756807 1705.1130178165295 405.22209761756807ZM1827.1777921937442 503.3122202243929L1827.1777921937442 503.3122202243929Q1827.1777921937442 515.0883156975137 1823.7452979975428 524.5936842408399Q1820.312803801342 534.0990527841661 1814.1343142481796 540.9640411765683Q1807.9558246950178 547.8026257674614 1799.4009930060238 551.499157978755Q1790.8461613170302 555.2220939915578 1780.7863129420102 555.2220939915578L1780.7863129420102 555.2220939915578Q1770.7000607654809 555.2220939915578 1762.1452290764873 551.499157978755Q1753.5903973874938 547.8026257674614 1747.4119078343315 540.9640411765683Q1741.2334182811692 534.0990527841661 1737.8273278864776 524.5936842408399Q1734.3948336902763 515.0883156975137 1734.3948336902763 503.3122202243929L1734.3948336902763 503.3122202243929Q1734.3948336902763 491.72095136183674 1737.8273278864776 482.10996761247355Q1741.2334182811692 472.5253876646196 1747.4119078343315 465.6603992722174Q1753.5903973874938 458.8218146813243 1762.1452290764873 455.12528247003075Q1770.7000607654809 451.402346457228 1780.7863129420102 451.402346457228L1780.7863129420102 451.402346457228Q1790.8461613170302 451.402346457228 1799.4009930060238 455.12528247003075Q1807.9558246950178 458.8218146813243 1814.1343142481796 465.6603992722174Q1820.312803801342 472.5253876646196 1823.7452979975428 482.10996761247355Q1827.1777921937442 491.72095136183674 1827.1777921937442 503.3122202243929ZM1808.7215349387857 503.3122202243929L1808.7215349387857 503.3122202243929Q1808.7215349387857 486.572210067535 1801.2228553101613 476.8028035091164Q1793.6977718800285 467.00699314918853 1780.7863129420102 467.00699314918853L1780.7863129420102 467.00699314918853Q1767.848450202483 467.00699314918853 1760.3497705738587 476.8028035091164Q1752.8246871437254 486.572210067535 1752.8246871437254 503.3122202243929L1752.8246871437254 503.3122202243929Q1752.8246871437254 520.0522303812506 1760.3497705738587 529.8216369396694Q1767.848450202483 539.6174472995972 1780.7863129420102 539.6174472995972L1780.7863129420102 539.6174472995972Q1793.6977718800285 539.6174472995972 1801.2228553101613 529.8216369396694Q1808.7215349387857 520.0522303812506 1808.7215349387857 503.3122202243929ZM1884.2100034537011 539.8022739101618L1881.728046111833 554.6412103583546Q1865.3840929776134 554.271557137225 1858.5455083867205 547.6177991568968Q1851.6805199943183 540.9640411765683 1851.6805199943183 526.8908149721437L1851.6805199943183 526.8908149721437L1851.6805199943183 408.25853479113067L1869.3710670055088 405.22209761756807L1869.3710670055088 524.0392044091459Q1869.3710670055088 528.3958316581704 1870.1367772492767 531.2474422211683Q1870.9024874930446 534.0990527841661 1872.592330789636 535.8152998822668Q1874.3085778877366 537.5315469803672 1877.1601884507345 538.3764686286629Q1880.0117990137323 539.2477940784679 1884.2100034537011 539.8022739101618L1884.2100034537011 539.8022739101618ZM1921.6505939938029 453.88430379909653L1921.6505939938029 552.7401366496892L1903.9600469826123 552.7401366496892L1903.9600469826123 453.88430379909653L1921.6505939938029 453.88430379909653ZM1912.72610908368 436.00893017734137L1912.72610908368 436.00893017734137Q1907.9734248120167 436.00893017734137 1904.6465458218527 432.8668777977419Q1901.3196668316887 429.75122921965163 1901.3196668316887 424.4176613147852L1901.3196668316887 424.4176613147852Q1901.3196668316887 419.08409340991886 1904.6465458218527 415.96844483182855Q1907.9734248120167 412.8263924522291 1912.72610908368 412.8263924522291L1912.72610908368 412.8263924522291Q1917.478793355343 412.8263924522291 1920.8056723455074 415.96844483182855Q1924.1325513356715 419.08409340991886 1924.1325513356715 424.4176613147852L1924.1325513356715 424.4176613147852Q1924.1325513356715 429.75122921965163 1920.8056723455074 432.8668777977419Q1917.478793355343 436.00893017734137 1912.72610908368 436.00893017734137ZM2039.3323373204835 503.3122202243929L2039.3323373204835 503.3122202243929Q2039.3323373204835 515.0883156975137 2035.8998431242821 524.5936842408399Q2032.4937527295906 534.0990527841661 2026.3152631764283 540.9640411765683Q2020.1367736232664 547.8026257674614 2011.5819419342724 551.499157978755Q2003.027110245279 555.2220939915578 1992.9408580687495 555.2220939915578L1992.9408580687495 555.2220939915578Q1982.8546058922202 555.2220939915578 1974.2997742032267 551.499157978755Q1965.7449425142327 547.8026257674614 1959.5664529610708 540.9640411765683Q1953.3879634079085 534.0990527841661 1949.981873013217 524.5936842408399Q1946.5493788170156 515.0883156975137 1946.5493788170156 503.3122202243929L1946.5493788170156 503.3122202243929Q1946.5493788170156 491.72095136183674 1949.981873013217 482.10996761247355Q1953.3879634079085 472.5253876646196 1959.5664529610708 465.6603992722174Q1965.7449425142327 458.8218146813243 1974.2997742032267 455.12528247003075Q1982.8546058922202 451.402346457228 1992.9408580687495 451.402346457228L1992.9408580687495 451.402346457228Q2003.027110245279 451.402346457228 2011.5819419342724 455.12528247003075Q2020.1367736232664 458.8218146813243 2026.3152631764283 465.6603992722174Q2032.4937527295906 472.5253876646196 2035.8998431242821 482.10996761247355Q2039.3323373204835 491.72095136183674 2039.3323373204835 503.3122202243929ZM2020.876080065525 503.3122202243929L2020.876080065525 503.3122202243929Q2020.876080065525 486.572210067535 2013.377400436901 476.8028035091164Q2005.8787208082772 467.00699314918853 1992.9408580687495 467.00699314918853L1992.9408580687495 467.00699314918853Q1980.0029953292224 467.00699314918853 1972.5043157005985 476.8028035091164Q1965.005636071974 486.572210067535 1965.005636071974 503.3122202243929L1965.005636071974 503.3122202243929Q1965.005636071974 520.0522303812506 1972.5043157005985 529.8216369396694Q1980.0029953292224 539.6174472995972 1992.9408580687495 539.6174472995972L1992.9408580687495 539.6174472995972Q2005.8787208082772 539.6174472995972 2013.377400436901 529.8216369396694Q2020.876080065525 520.0522303812506 2020.876080065525 503.3122202243929Z " fill="#b88746" transform="matrix(0.4290619946396581,0,0,0.4290619946396581,0,93.95495186757476)"/></g></svg>